<svg version="1.1" xmlns="http://www.w3.org/2000/svg" xmlns:xlink="http://www.w3.org/1999/xlink" class="pretty-triangles full-height-2nd-column"><polygon fill="rgb(48.09923067294041,108.29339863456985,183.10044095941828,1)" points="616,0 653.5,75 578.5,75"></polygon><polygon fill="rgb(57.591674432352185,114.87639633369774,175.14786277815384,1)" points="616,0 653.5,75 691,0"></polygon><polygon fill="rgb(48.89140920019008,123.87041808559425,167.56695782087218,1)" points="578.5,75 653.5,75 616,150"></polygon><polygon fill="rgb(60.51002660328146,107.84163308364063,188.61675910215064,1)" points="616,150 653.5,75 691,150"></polygon><polygon fill="rgb(59.438845977801144,132.00183165602064,170.894890754008,1)" points="541,0 578.5,75 503.5,75"></polygon><polygon fill="rgb(54.25217939696355,128.28566647463333,178.90062307296853,1)" points="541,0 578.5,75 616,0"></polygon><polygon fill="rgb(52.97741211115623,118.79592302648658,192.0276458948678,1)" points="503.5,75 578.5,75 541,150"></polygon><polygon fill="rgb(48.634690211408795,128.33367561381328,189.56473653057455,1)" points="541,150 578.5,75 616,150"></polygon><polygon fill="rgb(50.774614134285,134.00059944122899,174.63100258870048,1)" points="466,0 503.5,75 428.5,75"></polygon><polygon fill="rgb(71.27414378685253,140.27221449470522,177.99983265143788,1)" points="466,0 503.5,75 541,0"></polygon><polygon fill="rgb(68.82724798683164,129.5110967744209,171.88971541982036,1)" points="428.5,75 503.5,75 466,150"></polygon><polygon fill="rgb(51.335712916423795,134.61921568077793,187.55398303396865,1)" points="466,150 503.5,75 541,150"></polygon><polygon fill="rgb(57.10131293870015,141.8633564390774,179.0288574953335,1)" points="391,0 428.5,75 353.5,75"></polygon><polygon fill="rgb(59.460325340670245,154.69392850238398,193.4212837221906,1)" points="391,0 428.5,75 466,0"></polygon><polygon fill="rgb(69.4715717406613,147.91460746279694,190.9765198216397,1)" points="353.5,75 428.5,75 391,150"></polygon><polygon fill="rgb(71.55806090627595,154.25587678650743,193.58655720241916,1)" points="391,150 428.5,75 466,150"></polygon><polygon fill="rgb(69.44163887577392,157.53984492227082,181.30370766265622,1)" points="316,0 353.5,75 278.5,75"></polygon><polygon fill="rgb(65.29644339094399,167.7437386770391,182.25545214744574,1)" points="316,0 353.5,75 391,0"></polygon><polygon fill="rgb(56.982876903183744,162.62679949201947,183.47077704219166,1)" points="278.5,75 353.5,75 316,150"></polygon><polygon fill="rgb(54.03024091489871,156.06673863189104,193.11279398119441,1)" points="316,150 353.5,75 391,150"></polygon><polygon fill="rgb(73.84846368727413,183.278788447733,197.42295378937018,1)" points="241,0 278.5,75 203.5,75"></polygon><polygon fill="rgb(74.58816842204135,184.92826336715942,187.29203708627279,1)" points="241,0 278.5,75 316,0"></polygon><polygon fill="rgb(53.771365420155576,178.98035922687006,179.7225640215159,1)" points="203.5,75 278.5,75 241,150"></polygon><polygon fill="rgb(53.00552408258517,165.29362044607143,182.47176505231775,1)" points="241,150 278.5,75 316,150"></polygon><polygon fill="rgb(64.48093554619962,192.11575260374445,190.00919910529856,1)" points="166,0 203.5,75 128.5,75"></polygon><polygon fill="rgb(51.392781014452424,191.27127103216125,187.67431693438976,1)" points="166,0 203.5,75 241,0"></polygon><polygon fill="rgb(59.755357414897965,196.15749364755533,201.39805824393048,1)" points="128.5,75 203.5,75 166,150"></polygon><polygon fill="rgb(74.92128620201365,191.20393940248454,192.82145228893478,1)" points="166,150 203.5,75 241,150"></polygon><polygon fill="rgb(64.91197423249415,202.97438862888447,184.68769986662224,1)" points="91,0 128.5,75 53.5,75"></polygon><polygon fill="rgb(62.82055502621551,198.24898047927456,197.14288186618057,1)" points="91,0 128.5,75 166,0"></polygon><polygon fill="rgb(72.63839386620667,191.5390702777112,198.7392447387653,1)" points="53.5,75 128.5,75 91,150"></polygon><polygon fill="rgb(75.67239758011351,204.12618210663808,183.29251041158682,1)" points="91,150 128.5,75 166,150"></polygon><polygon fill="rgb(54.67375966653053,112.68996035454622,180.26739401622436,1)" points="616,150 653.5,225 578.5,225"></polygon><polygon fill="rgb(55.37772190266384,115.17308079991045,186.48276915261872,1)" points="616,150 653.5,225 691,150"></polygon><polygon fill="rgb(60.739844817121,112.02949748841141,184.52484750823064,1)" points="578.5,225 653.5,225 616,300"></polygon><polygon fill="rgb(50.23592313748381,118.74205701822041,179.49490639443425,1)" points="616,300 653.5,225 691,300"></polygon><polygon fill="rgb(47.58879988577244,134.3375135410246,179.91481517159812,1)" points="541,150 578.5,225 503.5,225"></polygon><polygon fill="rgb(47.55249849979379,128.47398399774124,177.88877931211948,1)" points="541,150 578.5,225 616,150"></polygon><polygon fill="rgb(50.9426251595256,132.3116441694753,192.96838953815325,1)" points="503.5,225 578.5,225 541,300"></polygon><polygon fill="rgb(69.83444298205323,130.40869277651356,190.10233629122962,1)" points="541,300 578.5,225 616,300"></polygon><polygon fill="rgb(70.78273186242268,145.31683751017934,185.26365337685414,1)" points="466,150 503.5,225 428.5,225"></polygon><polygon fill="rgb(57.283971175050404,146.0362769301502,188.6066765778129,1)" points="466,150 503.5,225 541,150"></polygon><polygon fill="rgb(49.0509242398645,131.54861175524823,174.26909497299982,1)" points="428.5,225 503.5,225 466,300"></polygon><polygon fill="rgb(66.18198389440472,130.13977321592932,178.1416346931876,1)" points="466,300 503.5,225 541,300"></polygon><polygon fill="rgb(62.77361159884813,161.46696028972306,191.52026426292858,1)" points="391,150 428.5,225 353.5,225"></polygon><polygon fill="rgb(59.04338310655609,144.91196331598582,192.47910729001848,1)" points="391,150 428.5,225 466,150"></polygon><polygon fill="rgb(54.9326749239306,147.62195109401392,173.6122205446485,1)" points="353.5,225 428.5,225 391,300"></polygon><polygon fill="rgb(68.36516665210166,148.161810944297,195.10467530449827,1)" points="391,300 428.5,225 466,300"></polygon><polygon fill="rgb(54.58834613112723,170.13554927854472,177.39152129071675,1)" points="316,150 353.5,225 278.5,225"></polygon><polygon fill="rgb(54.967013911566546,174.31310627608502,176.7579029484214,1)" points="316,150 353.5,225 391,150"></polygon><polygon fill="rgb(68.1422878099218,174.1514157043378,180.26792278688285,1)" points="278.5,225 353.5,225 316,300"></polygon><polygon fill="rgb(70.5798378277435,161.1742837942344,193.15254674295292,1)" points="316,300 353.5,225 391,300"></polygon><polygon fill="rgb(60.0427936814415,168.20911459965942,187.7187105300603,1)" points="241,150 278.5,225 203.5,225"></polygon><polygon fill="rgb(57.36967073297316,186.55715735721233,187.66440364522717,1)" points="241,150 278.5,225 316,150"></polygon><polygon fill="rgb(70.95189478498821,186.6219003317017,180.73125182214554,1)" points="203.5,225 278.5,225 241,300"></polygon><polygon fill="rgb(58.72439849175656,164.72312311996185,185.12116681000913,1)" points="241,300 278.5,225 316,300"></polygon><polygon fill="rgb(54.41124054671223,197.74918109198273,202.70407994362208,1)" points="166,150 203.5,225 128.5,225"></polygon><polygon fill="rgb(53.38368392449375,199.4102989764525,181.56909411246428,1)" points="166,150 203.5,225 241,150"></polygon><polygon fill="rgb(64.01937449038512,193.627112634257,190.08588700543902,1)" points="128.5,225 203.5,225 166,300"></polygon><polygon fill="rgb(52.08965686900561,177.06707829157642,193.0852889953099,1)" points="166,300 203.5,225 241,300"></polygon><polygon fill="rgb(58.02022875484819,209.08515047249705,189.10363955534334,1)" points="91,150 128.5,225 53.5,225"></polygon><polygon fill="rgb(56.62275894636175,189.79176466600995,197.4905841607066,1)" points="91,150 128.5,225 166,150"></polygon><polygon fill="rgb(53.85895154648573,206.70942526267285,204.81020000598295,1)" points="53.5,225 128.5,225 91,300"></polygon><polygon fill="rgb(70.33645311581952,202.18846187090696,188.84524543763956,1)" points="91,300 128.5,225 166,300"></polygon><polygon fill="rgb(60.76900043126407,124.78276095768608,185.30992197379754,1)" points="616,300 653.5,375 578.5,375"></polygon><polygon fill="rgb(55.16491896517671,138.08306513943543,169.32202456475926,1)" points="616,300 653.5,375 691,300"></polygon><polygon fill="rgb(63.18141750457861,132.61156133108543,171.50623998606625,1)" points="578.5,375 653.5,375 616,450"></polygon><polygon fill="rgb(49.002167642298694,120.99049050783447,175.09136757565668,1)" points="616,450 653.5,375 691,450"></polygon><polygon fill="rgb(53.13822400170595,140.56017428143872,177.85641209148082,1)" points="541,300 578.5,375 503.5,375"></polygon><polygon fill="rgb(51.617288800671496,139.2703032383357,183.4647389842175,1)" points="541,300 578.5,375 616,300"></polygon><polygon fill="rgb(67.64183393401585,145.30651122956587,192.9049963172543,1)" points="503.5,375 578.5,375 541,450"></polygon><polygon fill="rgb(65.45311540971736,136.91137033030523,169.9420639329717,1)" points="541,450 578.5,375 616,450"></polygon><polygon fill="rgb(60.41532977102898,152.61815889961144,190.46548192331326,1)" points="466,300 503.5,375 428.5,375"></polygon><polygon fill="rgb(67.8514127716731,135.5957949734907,188.5529713990253,1)" points="466,300 503.5,375 541,300"></polygon><polygon fill="rgb(57.1547336438261,155.81000231203555,179.47840447236274,1)" points="428.5,375 503.5,375 466,450"></polygon><polygon fill="rgb(70.47182400536052,152.99128757992494,191.13501067683393,1)" points="466,450 503.5,375 541,450"></polygon><polygon fill="rgb(59.56219566232965,152.91976126679526,173.4043816306091,1)" points="391,300 428.5,375 353.5,375"></polygon><polygon fill="rgb(67.07414910327249,152.15580215355283,197.037754682408,1)" points="391,300 428.5,375 466,300"></polygon><polygon fill="rgb(62.371438396017005,144.81269277052857,193.13171362712652,1)" points="353.5,375 428.5,375 391,450"></polygon><polygon fill="rgb(71.54719005520015,144.91434118406295,185.17963724494894,1)" points="391,450 428.5,375 466,450"></polygon><polygon fill="rgb(62.35437542736804,171.55436753632753,188.99808369340303,1)" points="316,300 353.5,375 278.5,375"></polygon><polygon fill="rgb(55.964540679637686,172.58281349689665,196.19768006622317,1)" points="316,300 353.5,375 391,300"></polygon><polygon fill="rgb(63.309402182127,166.9841557323157,187.21821402080033,1)" points="278.5,375 353.5,375 316,450"></polygon><polygon fill="rgb(67.87627727953893,159.72648091024706,199.25873822872484,1)" points="316,450 353.5,375 391,450"></polygon><polygon fill="rgb(56.58117630737296,189.33586020147635,191.88150735183507,1)" points="241,300 278.5,375 203.5,375"></polygon><polygon fill="rgb(69.37549683673751,165.49163320160406,189.33995603358701,1)" points="241,300 278.5,375 316,300"></polygon><polygon fill="rgb(56.70109505825838,189.2657926126352,181.3920917869027,1)" points="203.5,375 278.5,375 241,450"></polygon><polygon fill="rgb(53.471607940617865,166.50042114789466,177.6769810553285,1)" points="241,450 278.5,375 316,450"></polygon><polygon fill="rgb(75.4022152949862,184.8020091852432,195.6152215684739,1)" points="166,300 203.5,375 128.5,375"></polygon><polygon fill="rgb(69.04576391191314,200.36863642263918,193.29990509972617,1)" points="166,300 203.5,375 241,300"></polygon><polygon fill="rgb(60.98971710847181,182.89721384164204,189.49159849497434,1)" points="128.5,375 203.5,375 166,450"></polygon><polygon fill="rgb(69.52474595824751,198.66222962498327,184.45263738381968,1)" points="166,450 203.5,375 241,450"></polygon><polygon fill="rgb(57.730310584568215,195.9987444737954,182.47722979956873,1)" points="91,300 128.5,375 53.5,375"></polygon><polygon fill="rgb(72.08834543448795,196.63193304282586,192.4916851334099,1)" points="91,300 128.5,375 166,300"></polygon><polygon fill="rgb(56.30119912627724,199.12628323175193,183.80675315642307,1)" points="53.5,375 128.5,375 91,450"></polygon><polygon fill="rgb(65.46702499553137,205.48698146510026,194.16223675506947,1)" points="91,450 128.5,375 166,450"></polygon><polygon fill="rgb(50.6770636901999,145.64161359147764,194.97511234218646,1)" points="616,450 653.5,525 578.5,525"></polygon><polygon fill="rgb(56.147831128990454,131.08901348428068,188.98784485838422,1)" points="616,450 653.5,525 691,450"></polygon><polygon fill="rgb(68.0207412772231,150.8792008328664,179.20408923093788,1)" points="578.5,525 653.5,525 616,600"></polygon><polygon fill="rgb(52.33580354856058,133.10041646366759,179.67338684208866,1)" points="616,600 653.5,525 691,600"></polygon><polygon fill="rgb(63.934069582806444,155.5145224480193,184.1504550321982,1)" points="541,450 578.5,525 503.5,525"></polygon><polygon fill="rgb(63.901251276194586,153.65874029065668,186.64486157760825,1)" points="541,450 578.5,525 616,450"></polygon><polygon fill="rgb(49.07625434489371,145.74915993552295,192.75975416705043,1)" points="503.5,525 578.5,525 541,600"></polygon><polygon fill="rgb(56.77991637188264,142.7133875884167,194.95699418610783,1)" points="541,600 578.5,525 616,600"></polygon><polygon fill="rgb(73.0081685094203,151.45218191087974,190.12166208945408,1)" points="466,450 503.5,525 428.5,525"></polygon><polygon fill="rgb(59.329253661617564,152.39406925997292,191.01047855850376,1)" points="466,450 503.5,525 541,450"></polygon><polygon fill="rgb(52.49663748189996,153.88728366823392,194.46254481235306,1)" points="428.5,525 503.5,525 466,600"></polygon><polygon fill="rgb(69.2849863945263,156.10261577999836,178.25932617613066,1)" points="466,600 503.5,525 541,600"></polygon><polygon fill="rgb(54.63597318356443,153.29547277910729,182.5847869446069,1)" points="391,450 428.5,525 353.5,525"></polygon><polygon fill="rgb(64.52912921830053,148.74270647464422,195.27436244817406,1)" points="391,450 428.5,525 466,450"></polygon><polygon fill="rgb(50.602279966783755,164.8495391313202,184.05850420252565,1)" points="353.5,525 428.5,525 391,600"></polygon><polygon fill="rgb(65.79487461357597,171.31033408211084,185.71751559435995,1)" points="391,600 428.5,525 466,600"></polygon><polygon fill="rgb(66.48205574717433,177.872783627609,178.77212601427155,1)" points="316,450 353.5,525 278.5,525"></polygon><polygon fill="rgb(56.06216826376878,159.50124793314274,193.89546446277586,1)" points="316,450 353.5,525 391,450"></polygon><polygon fill="rgb(67.69238464304755,181.62954881634812,194.84228421711472,1)" points="278.5,525 353.5,525 316,600"></polygon><polygon fill="rgb(65.35758757340953,169.2616765066915,188.70080588697573,1)" points="316,600 353.5,525 391,600"></polygon><polygon fill="rgb(61.495112032387404,171.7018774209405,187.62594423460322,1)" points="241,450 278.5,525 203.5,525"></polygon><polygon fill="rgb(54.26346274487418,186.96543605334605,196.15278279290868,1)" points="241,450 278.5,525 316,450"></polygon><polygon fill="rgb(60.93379137469533,193.5878047632542,181.04580490745394,1)" points="203.5,525 278.5,525 241,600"></polygon><polygon fill="rgb(54.285234603335226,174.32258916212058,178.3203745730197,1)" points="241,600 278.5,525 316,600"></polygon><polygon fill="rgb(70.50407327492036,203.6975104287348,194.45644728891403,1)" points="166,450 203.5,525 128.5,525"></polygon><polygon fill="rgb(74.75856692939355,198.45410347893073,195.87339340723105,1)" points="166,450 203.5,525 241,450"></polygon><polygon fill="rgb(58.38668182919125,184.89756839083637,195.28413888590836,1)" points="128.5,525 203.5,525 166,600"></polygon><polygon fill="rgb(54.57927124612843,198.32437145129458,195.87033964174861,1)" points="166,600 203.5,525 241,600"></polygon><polygon fill="rgb(57.052071727721895,201.72062539110718,190.58919145997586,1)" points="91,450 128.5,525 53.5,525"></polygon><polygon fill="rgb(64.16086310939437,204.82862371840628,197.88733063579323,1)" points="91,450 128.5,525 166,450"></polygon><polygon fill="rgb(62.409300107618506,215.23881462779542,193.87942129889328,1)" points="53.5,525 128.5,525 91,600"></polygon><polygon fill="rgb(58.166310842221634,211.81425518904584,181.11503375561722,1)" points="91,600 128.5,525 166,600"></polygon><polygon fill="rgb(60.94421389442201,147.2872879738921,183.450194133569,1)" points="616,600 653.5,675 578.5,675"></polygon><polygon fill="rgb(71.92844777805556,154.95869617564674,179.81716849830002,1)" points="616,600 653.5,675 691,600"></polygon><polygon fill="rgb(71.73008252324564,150.40014023188857,177.08952154082579,1)" points="578.5,675 653.5,675 616,750"></polygon><polygon fill="rgb(51.11487831924376,163.10719595048755,188.34462670410966,1)" points="616,750 653.5,675 691,750"></polygon><polygon fill="rgb(56.61364400392975,167.1463407892575,189.23494285499623,1)" points="541,600 578.5,675 503.5,675"></polygon><polygon fill="rgb(51.425460229627134,160.40627772402394,182.81406139544757,1)" points="541,600 578.5,675 616,600"></polygon><polygon fill="rgb(55.82788695308811,158.48637818379726,192.2904827997074,1)" points="503.5,675 578.5,675 541,750"></polygon><polygon fill="rgb(69.20451635893177,150.71994449572225,188.83818796927795,1)" points="541,750 578.5,675 616,750"></polygon><polygon fill="rgb(60.875750933094444,155.24487278237743,197.87735041867498,1)" points="466,600 503.5,675 428.5,675"></polygon><polygon fill="rgb(55.59813291991913,165.37229224059803,198.1869701729301,1)" points="466,600 503.5,675 541,600"></polygon><polygon fill="rgb(54.681821924336006,149.48897972178264,186.16078425301515,1)" points="428.5,675 503.5,675 466,750"></polygon><polygon fill="rgb(58.456427559344604,167.9664729073579,178.0556671421281,1)" points="466,750 503.5,675 541,750"></polygon><polygon fill="rgb(52.633567314051135,168.14734819281986,193.91896688462836,1)" points="391,600 428.5,675 353.5,675"></polygon><polygon fill="rgb(58.15521701729137,164.77730439178924,197.75296575415027,1)" points="391,600 428.5,675 466,600"></polygon><polygon fill="rgb(63.92497127593349,168.72228710352127,175.2014090771132,1)" points="353.5,675 428.5,675 391,750"></polygon><polygon fill="rgb(54.10912220195753,170.30241544256882,194.92482681809798,1)" points="391,750 428.5,675 466,750"></polygon><polygon fill="rgb(55.44278193645866,180.20760205396002,198.83323598771636,1)" points="316,600 353.5,675 278.5,675"></polygon><polygon fill="rgb(66.3972236029377,186.28797784760286,178.74349306352846,1)" points="316,600 353.5,675 391,600"></polygon><polygon fill="rgb(51.056795670016626,184.45654099474922,200.78174372737155,1)" points="278.5,675 353.5,675 316,750"></polygon><polygon fill="rgb(62.40519988393949,173.54723381275872,191.72158832808003,1)" points="316,750 353.5,675 391,750"></polygon><polygon fill="rgb(56.36418240669859,196.63674113822458,195.57268355724864,1)" points="241,600 278.5,675 203.5,675"></polygon><polygon fill="rgb(67.44956542425008,188.24303123345592,198.0693747901659,1)" points="241,600 278.5,675 316,600"></polygon><polygon fill="rgb(54.06732470588679,187.37802794392053,184.6238632613991,1)" points="203.5,675 278.5,675 241,750"></polygon><polygon fill="rgb(66.21049437641908,184.23234730039627,181.82834564130638,1)" points="241,750 278.5,675 316,750"></polygon><polygon fill="rgb(56.95866573729824,199.76381751477774,183.09365228251937,1)" points="166,600 203.5,675 128.5,675"></polygon><polygon fill="rgb(64.02429951584998,195.3309832030762,184.43942485564594,1)" points="166,600 203.5,675 241,600"></polygon><polygon fill="rgb(65.59357125264671,188.96921692876796,196.30918383744796,1)" points="128.5,675 203.5,675 166,750"></polygon><polygon fill="rgb(55.37534565886759,190.25035916050862,181.27801885584546,1)" points="166,750 203.5,675 241,750"></polygon><polygon fill="rgb(53.51880143375015,211.4873069137002,184.13988463620598,1)" points="91,600 128.5,675 53.5,675"></polygon><polygon fill="rgb(59.40503398058797,207.47625615784105,182.72069959026732,1)" points="91,600 128.5,675 166,600"></polygon><polygon fill="rgb(57.479406179602556,199.55583088699498,185.8719136046319,1)" points="53.5,675 128.5,675 91,750"></polygon><polygon fill="rgb(69.21453803095828,197.74055556098514,189.7981443151658,1)" points="91,750 128.5,675 166,750"></polygon><polygon fill="rgb(55.0433661466914,168.68321618392406,188.71868479028598,1)" points="616,750 653.5,825 578.5,825"></polygon><polygon fill="rgb(69.46924210597751,174.4827651562577,194.99898437658214,1)" points="616,750 653.5,825 691,750"></polygon><polygon fill="rgb(70.78611075498,157.20301649572775,186.6508924739052,1)" points="578.5,825 653.5,825 616,900"></polygon><polygon fill="rgb(57.82870533104366,162.21938848884875,186.2348407283624,1)" points="616,900 653.5,825 691,900"></polygon><polygon fill="rgb(72.81689592638693,163.8562612422142,188.21460351981705,1)" points="541,750 578.5,825 503.5,825"></polygon><polygon fill="rgb(67.53126284115906,169.51772683177794,191.11373634116376,1)" points="541,750 578.5,825 616,750"></polygon><polygon fill="rgb(54.52040264416588,157.93775254446643,177.11043393631223,1)" points="503.5,825 578.5,825 541,900"></polygon><polygon fill="rgb(62.437743154373074,166.79116345276708,183.1657062617553,1)" points="541,900 578.5,825 616,900"></polygon><polygon fill="rgb(69.06031354091013,168.11249446999486,194.7647183430147,1)" points="466,750 503.5,825 428.5,825"></polygon><polygon fill="rgb(71.67122812473984,179.4370031850717,188.10163502178034,1)" points="466,750 503.5,825 541,750"></polygon><polygon fill="rgb(71.28574086341531,178.39523677093837,190.96073840655706,1)" points="428.5,825 503.5,825 466,900"></polygon><polygon fill="rgb(58.34223265367362,168.72429185625668,185.79989907085627,1)" points="466,900 503.5,825 541,900"></polygon><polygon fill="rgb(58.77030754312849,181.54197439478838,200.08221828468703,1)" points="391,750 428.5,825 353.5,825"></polygon><polygon fill="rgb(54.88420707181034,175.79859684580674,197.68019306093782,1)" points="391,750 428.5,825 466,750"></polygon><polygon fill="rgb(52.46125429078718,171.82939807261576,176.08396052222068,1)" points="353.5,825 428.5,825 391,900"></polygon><polygon fill="rgb(68.01347171181054,177.1520980422764,182.62889133228828,1)" points="391,900 428.5,825 466,900"></polygon><polygon fill="rgb(63.82957009304782,184.5925835176819,199.83257492080634,1)" points="316,750 353.5,825 278.5,825"></polygon><polygon fill="rgb(66.00382065382364,194.38539463643534,195.98761603001338,1)" points="316,750 353.5,825 391,750"></polygon><polygon fill="rgb(51.79125449243982,190.93345619545082,195.07022194600938,1)" points="278.5,825 353.5,825 316,900"></polygon><polygon fill="rgb(63.55999004767307,189.1727497904181,197.66737066109818,1)" points="316,900 353.5,825 391,900"></polygon><polygon fill="rgb(52.30393562647934,192.24937174922522,181.06096834209688,1)" points="241,750 278.5,825 203.5,825"></polygon><polygon fill="rgb(56.84404423056677,184.2569099060474,185.3448165914543,1)" points="241,750 278.5,825 316,750"></polygon><polygon fill="rgb(52.34053590366275,181.49104079305587,180.82870287851324,1)" points="203.5,825 278.5,825 241,900"></polygon><polygon fill="rgb(56.80316173040781,191.2749474187378,188.30036309175745,1)" points="241,900 278.5,825 316,900"></polygon><polygon fill="rgb(53.343792000019036,200.20835956822486,193.23094992266942,1)" points="166,750 203.5,825 128.5,825"></polygon><polygon fill="rgb(65.44283752389397,206.47087020060783,182.35694469054232,1)" points="166,750 203.5,825 241,750"></polygon><polygon fill="rgb(75.88079644027562,199.88212756646914,188.37751613648572,1)" points="128.5,825 203.5,825 166,900"></polygon><polygon fill="rgb(74.87217578537583,207.8594390606614,194.4416363684523,1)" points="166,900 203.5,825 241,900"></polygon><polygon fill="rgb(73.64123830792015,219.4497273281801,186.6310729509447,1)" points="91,750 128.5,825 53.5,825"></polygon><polygon fill="rgb(67.4883038702453,219.11661696844038,198.69865852600503,1)" points="91,750 128.5,825 166,750"></polygon><polygon fill="rgb(70.99517246157583,204.66401101526992,185.40267891409832,1)" points="53.5,825 128.5,825 91,900"></polygon><polygon fill="rgb(74.2409849907537,222.14550643610417,199.1467897269324,1)" points="91,900 128.5,825 166,900"></polygon><polygon fill="rgb(70.16644991487583,173.15424926308694,199.25981845985586,1)" points="616,900 653.5,975 578.5,975"></polygon><polygon fill="rgb(74.9722468216748,163.10549087082313,195.8383654977328,1)" points="616,900 653.5,975 691,900"></polygon><polygon fill="rgb(66.79529537037567,183.1892158088663,179.36322818724122,1)" points="578.5,975 653.5,975 616,1050"></polygon><polygon fill="rgb(57.94776335164263,183.4476318335035,176.30328169051162,1)" points="616,1050 653.5,975 691,1050"></polygon><polygon fill="rgb(57.00448314273703,167.48917948580728,198.27476926599408,1)" points="541,900 578.5,975 503.5,975"></polygon><polygon fill="rgb(71.9903292147325,184.91450397392305,199.30659201855246,1)" points="541,900 578.5,975 616,900"></polygon><polygon fill="rgb(65.62776954143915,162.45671181096097,197.90001961384368,1)" points="503.5,975 578.5,975 541,1050"></polygon><polygon fill="rgb(52.58952679899969,169.2822181725629,182.8375462145172,1)" points="541,1050 578.5,975 616,1050"></polygon><polygon fill="rgb(73.2748513583027,178.55089583307245,197.34788325149412,1)" points="466,900 503.5,975 428.5,975"></polygon><polygon fill="rgb(51.37452953569933,187.7286122174349,194.67150532709076,1)" points="466,900 503.5,975 541,900"></polygon><polygon fill="rgb(69.88357948362268,188.0752753130297,188.1754484766778,1)" points="428.5,975 503.5,975 466,1050"></polygon><polygon fill="rgb(69.22731252474867,168.19691312732266,185.84647202126908,1)" points="466,1050 503.5,975 541,1050"></polygon><polygon fill="rgb(62.04002905483497,183.8425786423531,181.30871069101173,1)" points="391,900 428.5,975 353.5,975"></polygon><polygon fill="rgb(61.686295771234434,175.27322337034767,178.13214233387885,1)" points="391,900 428.5,975 466,900"></polygon><polygon fill="rgb(67.62801584378904,194.79656136601494,186.50859063603332,1)" points="353.5,975 428.5,975 391,1050"></polygon><polygon fill="rgb(61.7289569076061,189.77655919979588,188.6692022140962,1)" points="391,1050 428.5,975 466,1050"></polygon><polygon fill="rgb(73.76272218842699,180.07683620392208,187.67649750763405,1)" points="316,900 353.5,975 278.5,975"></polygon><polygon fill="rgb(54.16522902927736,199.31547022251254,197.5989047146262,1)" points="316,900 353.5,975 391,900"></polygon><polygon fill="rgb(71.193567703611,180.15867594029476,191.18736517605686,1)" points="278.5,975 353.5,975 316,1050"></polygon><polygon fill="rgb(54.00510928758604,202.8032104370518,201.7538223054292,1)" points="316,1050 353.5,975 391,1050"></polygon><polygon fill="rgb(66.73272557479547,204.86417334153012,193.59524289394176,1)" points="241,900 278.5,975 203.5,975"></polygon><polygon fill="rgb(73.17763558042321,207.1004957545316,185.14358607827103,1)" points="241,900 278.5,975 316,900"></polygon><polygon fill="rgb(57.197179847699964,209.78114718106195,180.3297469154025,1)" points="203.5,975 278.5,975 241,1050"></polygon><polygon fill="rgb(56.1674384786816,191.25486379602341,195.80563931568176,1)" points="241,1050 278.5,975 316,1050"></polygon><polygon fill="rgb(55.020478023872236,200.40454804359214,185.4947413152228,1)" points="166,900 203.5,975 128.5,975"></polygon><polygon fill="rgb(57.580469112491876,220.78032826145872,201.8971200036347,1)" points="166,900 203.5,975 241,900"></polygon><polygon fill="rgb(68.38049876968442,200.3067632266216,206.35635017560472,1)" points="128.5,975 203.5,975 166,1050"></polygon><polygon fill="rgb(76.32038025180525,216.30314990072588,206.26707552854577,1)" points="166,1050 203.5,975 241,1050"></polygon><polygon fill="rgb(67.00207922583436,220.24933466489554,189.48046420473642,1)" points="91,900 128.5,975 53.5,975"></polygon><polygon fill="rgb(61.365150475862734,213.66060735828447,193.94946889041705,1)" points="91,900 128.5,975 166,900"></polygon><polygon fill="rgb(66.92637108904171,212.9665143677615,197.53706320346978,1)" points="53.5,975 128.5,975 91,1050"></polygon><polygon fill="rgb(69.67741742676529,207.73001087587255,194.58368013125911,1)" points="91,1050 128.5,975 166,1050"></polygon><polygon fill="rgb(54.55052435272444,191.91781424142988,200.51742637455465,1)" points="616,1050 653.5,1125 578.5,1125"></polygon><polygon fill="rgb(72.88029172548879,175.84314797315838,202.28052602242326,1)" points="616,1050 653.5,1125 691,1050"></polygon><polygon fill="rgb(58.42638928257938,190.93832527287682,189.25747975564104,1)" points="578.5,1125 653.5,1125 616,1200"></polygon><polygon fill="rgb(51.085165967215744,179.07403023246036,201.23446884716762,1)" points="616,1200 653.5,1125 691,1200"></polygon><polygon fill="rgb(72.96833795962226,174.57443497006156,182.2983277512432,1)" points="541,1050 578.5,1125 503.5,1125"></polygon><polygon fill="rgb(67.31785199850854,184.14650233691992,200.745337766703,1)" points="541,1050 578.5,1125 616,1050"></polygon><polygon fill="rgb(68.27074633731453,173.69835769544335,191.60062018852747,1)" points="503.5,1125 578.5,1125 541,1200"></polygon><polygon fill="rgb(53.2808567422541,196.490121188825,186.26890886464662,1)" points="541,1200 578.5,1125 616,1200"></polygon><polygon fill="rgb(63.7280507184137,193.47849623470802,193.16624283711806,1)" points="466,1050 503.5,1125 428.5,1125"></polygon><polygon fill="rgb(68.07229530292283,192.85508026706714,193.7144383128624,1)" points="466,1050 503.5,1125 541,1050"></polygon><polygon fill="rgb(62.00082795796639,184.78381141714465,184.50365449010405,1)" points="428.5,1125 503.5,1125 466,1200"></polygon><polygon fill="rgb(60.66810902078248,180.80699480320692,178.78707745027242,1)" points="466,1200 503.5,1125 541,1200"></polygon><polygon fill="rgb(58.50080328978001,203.95524809710105,200.20041970128722,1)" points="391,1050 428.5,1125 353.5,1125"></polygon><polygon fill="rgb(61.60336402153779,184.2333895971567,181.97346229237476,1)" points="391,1050 428.5,1125 466,1050"></polygon><polygon fill="rgb(71.08930023570437,180.84031705692607,199.30934120830787,1)" points="353.5,1125 428.5,1125 391,1200"></polygon><polygon fill="rgb(56.82141134827494,198.5999782405437,183.55455781848207,1)" points="391,1200 428.5,1125 466,1200"></polygon><polygon fill="rgb(69.31813379454836,206.17046175656023,181.82141321372725,1)" points="316,1050 353.5,1125 278.5,1125"></polygon><polygon fill="rgb(62.96470693304554,204.9897137390058,182.89133863412547,1)" points="316,1050 353.5,1125 391,1050"></polygon><polygon fill="rgb(76.38444794686194,186.6224513277972,203.432005947446,1)" points="278.5,1125 353.5,1125 316,1200"></polygon><polygon fill="rgb(69.34848883792003,205.15727592668026,202.2426871598156,1)" points="316,1200 353.5,1125 391,1200"></polygon><polygon fill="rgb(75.11643173238227,200.2765994691817,201.2959325344475,1)" points="241,1050 278.5,1125 203.5,1125"></polygon><polygon fill="rgb(64.36766380067512,205.43916086057672,183.80881779440907,1)" points="241,1050 278.5,1125 316,1050"></polygon><polygon fill="rgb(56.88539660431786,200.09114351934085,198.95398440255022,1)" points="203.5,1125 278.5,1125 241,1200"></polygon><polygon fill="rgb(67.23464980750222,202.74119481779786,197.7576229113958,1)" points="241,1200 278.5,1125 316,1200"></polygon><polygon fill="rgb(76.12609141857033,204.35372738281438,195.7601725443709,1)" points="166,1050 203.5,1125 128.5,1125"></polygon><polygon fill="rgb(64.5828584749029,207.67574093746586,184.29161887613324,1)" points="166,1050 203.5,1125 241,1050"></polygon><polygon fill="rgb(60.309584049096685,222.32660829224102,188.8567427066501,1)" points="128.5,1125 203.5,1125 166,1200"></polygon><polygon fill="rgb(55.07928238586025,208.581035533915,183.44531572006971,1)" points="166,1200 203.5,1125 241,1200"></polygon><polygon fill="rgb(73.39340031943125,224.15698813569625,192.6821359018953,1)" points="91,1050 128.5,1125 53.5,1125"></polygon><polygon fill="rgb(73.70776709432869,235.83831055646462,198.80243263862477,1)" points="91,1050 128.5,1125 166,1050"></polygon><polygon fill="rgb(69.35387538138876,224.23232611173904,198.58679968010313,1)" points="53.5,1125 128.5,1125 91,1200"></polygon><polygon fill="rgb(53.86481906778736,217.9734745762402,207.5335243147403,1)" points="91,1200 128.5,1125 166,1200"></polygon><polygon fill="rgb(66.53809474966286,199.0966612045815,191.75123083487827,1)" points="616,1200 653.5,1275 578.5,1275"></polygon><polygon fill="rgb(56.464990244472595,195.72121968627283,188.3659741608005,1)" points="616,1200 653.5,1275 691,1200"></polygon><polygon fill="rgb(57.24928387904903,192.720140843688,180.1717220713278,1)" points="578.5,1275 653.5,1275 616,1350"></polygon><polygon fill="rgb(55.144963148476734,192.12632863457168,198.03826898131828,1)" points="616,1350 653.5,1275 691,1350"></polygon><polygon fill="rgb(62.9836991864332,194.9915324655034,189.9562960262257,1)" points="541,1200 578.5,1275 503.5,1275"></polygon><polygon fill="rgb(56.24512374306977,200.0928651279281,187.6364631450734,1)" points="541,1200 578.5,1275 616,1200"></polygon><polygon fill="rgb(58.67266175828311,185.1718577262993,186.6890004696743,1)" points="503.5,1275 578.5,1275 541,1350"></polygon><polygon fill="rgb(68.83198935909355,189.88861758624788,190.98244955102447,1)" points="541,1350 578.5,1275 616,1350"></polygon><polygon fill="rgb(67.40550656455108,208.04370990423803,199.3855262196048,1)" points="466,1200 503.5,1275 428.5,1275"></polygon><polygon fill="rgb(64.77251398187938,187.97363571472036,192.20945876095513,1)" points="466,1200 503.5,1275 541,1200"></polygon><polygon fill="rgb(57.36531964566648,192.50138699263385,195.20239594764524,1)" points="428.5,1275 503.5,1275 466,1350"></polygon><polygon fill="rgb(75.19942436006166,187.74780623877095,186.77635471454914,1)" points="466,1350 503.5,1275 541,1350"></polygon><polygon fill="rgb(62.37516970809209,213.19335631666755,193.66042199187817,1)" points="391,1200 428.5,1275 353.5,1275"></polygon><polygon fill="rgb(68.57003471243924,210.94349359573906,200.16412802493198,1)" points="391,1200 428.5,1275 466,1200"></polygon><polygon fill="rgb(55.75217103649354,198.508526254045,181.85820568886206,1)" points="353.5,1275 428.5,1275 391,1350"></polygon><polygon fill="rgb(62.52969152767047,213.8053307181925,196.32048168474824,1)" points="391,1350 428.5,1275 466,1350"></polygon><polygon fill="rgb(76.68566494127903,196.38492369784,183.9004970203496,1)" points="316,1200 353.5,1275 278.5,1275"></polygon><polygon fill="rgb(74.85647188242747,202.12492178930933,184.4464422173615,1)" points="316,1200 353.5,1275 391,1200"></polygon><polygon fill="rgb(68.44951914714906,216.44095300044862,201.67012806670758,1)" points="278.5,1275 353.5,1275 316,1350"></polygon><polygon fill="rgb(64.16272001399525,214.0903893196346,202.16297122320066,1)" points="316,1350 353.5,1275 391,1350"></polygon><polygon fill="rgb(53.66707000971042,207.8197357244436,199.32583999111756,1)" points="241,1200 278.5,1275 203.5,1275"></polygon><polygon fill="rgb(63.52848849309402,215.08140584905505,198.99076268940212,1)" points="241,1200 278.5,1275 316,1200"></polygon><polygon fill="rgb(57.87030240299123,217.28076296010678,187.4285651307596,1)" points="203.5,1275 278.5,1275 241,1350"></polygon><polygon fill="rgb(73.18173923693215,223.72405974065572,197.1871537651198,1)" points="241,1350 278.5,1275 316,1350"></polygon><polygon fill="rgb(54.400911292803144,232.14892161070009,208.78708434744618,1)" points="166,1200 203.5,1275 128.5,1275"></polygon><polygon fill="rgb(60.434072411244856,215.27721692703662,194.42241263217633,1)" points="166,1200 203.5,1275 241,1200"></polygon><polygon fill="rgb(60.73165726215367,225.16233806183956,197.1068039395008,1)" points="128.5,1275 203.5,1275 166,1350"></polygon><polygon fill="rgb(64.24459368237655,226.50645818480848,204.1969575141011,1)" points="166,1350 203.5,1275 241,1350"></polygon><polygon fill="rgb(70.45988351830358,219.3080261764532,187.47387537704694,1)" points="91,1200 128.5,1275 53.5,1275"></polygon><polygon fill="rgb(73.3548339759087,236.88856321286346,204.16981275979765,1)" points="91,1200 128.5,1275 166,1200"></polygon><polygon fill="rgb(53.5931119632896,227.63645164959982,201.70056008347262,1)" points="53.5,1275 128.5,1275 91,1350"></polygon><polygon fill="rgb(59.695493066709645,222.97090261680142,186.66930445728642,1)" points="91,1350 128.5,1275 166,1350"></polygon><polygon fill="rgb(72.43122745528656,201.82441196319132,204.10985468912605,1)" points="616,1350 653.5,1425 578.5,1425"></polygon><polygon fill="rgb(51.91308585585657,207.44777345230463,183.70661967282865,1)" points="616,1350 653.5,1425 691,1350"></polygon><polygon fill="rgb(76.15205232633193,194.26711152974516,186.25647090670705,1)" points="578.5,1425 653.5,1425 616,1500"></polygon><polygon fill="rgb(68.80800021228148,199.46072536706563,187.2897678417486,1)" points="616,1500 653.5,1425 691,1500"></polygon><polygon fill="rgb(67.99162387406604,213.00890519183415,192.82278815047488,1)" points="541,1350 578.5,1425 503.5,1425"></polygon><polygon fill="rgb(59.05269090614756,214.03546403283332,182.1911243790562,0.9417385174848605)" points="541,1350 578.5,1425 616,1350"></polygon><polygon fill="rgb(76.14265449705202,200.91386296540273,197.3140935205281,1)" points="503.5,1425 578.5,1425 541,1500"></polygon><polygon fill="rgb(54.30046107490025,211.9256652720496,182.88768545643416,0.9732317120563001)" points="541,1500 578.5,1425 616,1500"></polygon><polygon fill="rgb(72.96653187898215,214.54026111256042,183.56463759974477,0.8899892350479134)" points="466,1350 503.5,1425 428.5,1425"></polygon><polygon fill="rgb(65.95027230919356,213.89609294452364,196.34692746374543,0.9567627785766629)" points="466,1350 503.5,1425 541,1350"></polygon><polygon fill="rgb(63.91680216019279,200.83172703366694,191.27538674654056,0.9198134731075625)" points="428.5,1425 503.5,1425 466,1500"></polygon><polygon fill="rgb(58.675083681143654,214.30643081046904,201.29896616054145,0.9191266516328263)" points="466,1500 503.5,1425 541,1500"></polygon><polygon fill="rgb(57.531864336497314,218.4012944906276,197.09089772186667,0.8990387631143248)" points="391,1350 428.5,1425 353.5,1425"></polygon><polygon fill="rgb(57.44271047292274,210.52648091048468,206.0316133417448,0.8534858099421211)" points="391,1350 428.5,1425 466,1350"></polygon><polygon fill="rgb(73.56353452603732,209.3504583150243,188.74261622161612,0.9058220134792581)" points="353.5,1425 428.5,1425 391,1500"></polygon><polygon fill="rgb(60.46174969757129,200.87378910512064,201.63140838997995,0.8867053214755722)" points="391,1500 428.5,1425 466,1500"></polygon><polygon fill="rgb(61.355704520222,209.4120743893276,197.0163061485511,0.8238741734244681)" points="316,1350 353.5,1425 278.5,1425"></polygon><polygon fill="rgb(65.14287818023533,208.2107850470204,203.36225934473134,0.8339763765091175)" points="316,1350 353.5,1425 391,1350"></polygon><polygon fill="rgb(66.0314608949215,222.55693740589228,194.80899526193738,0.8316089848559866)" points="278.5,1425 353.5,1425 316,1500"></polygon><polygon fill="rgb(76.48356654351447,205.82113396853055,184.47355181736887,0.7567379691411158)" points="316,1500 353.5,1425 391,1500"></polygon><polygon fill="rgb(69.57623873378918,229.86634704726893,186.46493030854262,0.7367557076015833)" points="241,1350 278.5,1425 203.5,1425"></polygon><polygon fill="rgb(71.14212148652516,221.80295401354059,198.25097961907846,0.7213993209850573)" points="241,1350 278.5,1425 316,1350"></polygon><polygon fill="rgb(69.8179408208928,227.19175813037307,197.27155062197426,0.7443050605196251)" points="203.5,1425 278.5,1425 241,1500"></polygon><polygon fill="rgb(59.19010575634092,216.93286517818282,195.07615216539995,0.7909733924879188)" points="241,1500 278.5,1425 316,1500"></polygon><polygon fill="rgb(57.93860188537684,239.99950303567547,208.1409551710943,0.6910697317804139)" points="166,1350 203.5,1425 128.5,1425"></polygon><polygon fill="rgb(72.80843511656013,232.70698675339608,191.77604983319975,0.6830362896855978)" points="166,1350 203.5,1425 241,1350"></polygon><polygon fill="rgb(66.91371740795314,232.3253817035601,194.83095591158312,0.7175371569240343)" points="128.5,1425 203.5,1425 166,1500"></polygon><polygon fill="rgb(57.13016002035637,234.12524204875137,198.387444439848,0.6587358274239213)" points="166,1500 203.5,1425 241,1500"></polygon><polygon fill="rgb(64.98638011410776,241.81722900949256,200.3172849084922,0.5941392543873837)" points="91,1350 128.5,1425 53.5,1425"></polygon><polygon fill="rgb(68.47301752785336,250.25186272465214,192.96091482295225,0.5865436256286845)" points="91,1350 128.5,1425 166,1350"></polygon><polygon fill="rgb(70.80663960035318,241.47164468943816,203.9671459293075,0.6310234505705533)" points="53.5,1425 128.5,1425 91,1500"></polygon><polygon fill="rgb(70.73838258290611,237.37419791459155,192.76627858271874,0.6086158511876744)" points="91,1500 128.5,1425 166,1500"></polygon></svg>